<svg xmlns="http://www.w3.org/2000/svg" width="38" height="38" viewBox="0 0 38 38"><defs><style>.a{fill:#98ccfd;}.b{fill:#fff;}.c{fill:#4788c7;}</style></defs><g transform="translate(-1 -1)"><path class="a" d="M20,1A19,19,0,1,0,39,20,19,19,0,0,0,20,1Z"/><path class="b" d="M38.892,22.007c0-.027.008-.053.011-.08C38.9,21.953,38.9,21.98,38.892,22.007ZM1.1,21.92c0,.036.01.072.014.108C1.108,21.992,1.1,21.956,1.1,21.92Zm21.475,3.116h4.917l.772-4.995h-5.69v-2.73c0-2.075.678-3.915,2.619-3.915h3.119V9.036A26.6,26.6,0,0,0,24.414,8.8c-4.573,0-7.254,2.415-7.254,7.917V20.04h-4.7v5h4.7v13.4a18.99,18.99,0,0,0,2.84.235,19.125,19.125,0,0,0,2.572-.194Z"/><path class="c" d="M20,2A18,18,0,1,1,2,20,18.021,18.021,0,0,1,20,2m0-1A19,19,0,1,0,39,20,19,19,0,0,0,20,1Z"/></g></svg>